<svg width="292" height="44" viewBox="0 0 292 44" fill="none" xmlns="http://www.w3.org/2000/svg">
<path d="M253.716 1.57202H262.031L282.834 28.589V1.57202H291.623V43H283.367L262.535 16.0126V43H253.716V1.57202Z" fill="#1E94FF"/>
<path d="M207.894 40.9286C211.228 42.7633 214.986 43.6806 219.169 43.6806C223.331 43.6806 227.08 42.7633 230.413 40.9286C233.747 39.0939 236.361 36.5491 238.255 33.294C240.149 30.0192 241.096 26.3499 241.096 22.286C241.096 18.2221 240.149 14.5627 238.255 11.3076C236.361 8.03281 233.747 5.47809 230.413 3.64342C227.08 1.80875 223.331 0.891418 219.169 0.891418C214.986 0.891418 211.228 1.80875 207.894 3.64342C204.56 5.47809 201.947 8.03281 200.053 11.3076C198.159 14.5627 197.212 18.2221 197.212 22.286C197.212 26.3499 198.159 30.0192 200.053 33.294C201.947 36.5491 204.56 39.0939 207.894 40.9286Z" fill="#1E94FF"/>
<path d="M213.904 31.5854C216.158 33.551 219.426 33.4583 221.581 31.369L221.793 31.1526L232.843 18.3683L226.89 11.9999L217.534 22.9722L212.634 18.3683L207 25.0639L213.682 31.3813L213.904 31.5854Z" fill="#181826"/>
<path d="M168.769 43.6806C165.495 43.6806 162.328 43.217 159.271 42.2898C156.213 41.3429 153.668 40.0606 151.636 38.4429L155.424 31.4002C157.14 32.7614 159.202 33.8661 161.608 34.7144C164.035 35.543 166.52 35.9573 169.065 35.9573C170.624 35.9573 171.995 35.7896 173.179 35.4542C174.382 35.0991 175.329 34.5665 176.019 33.8563C176.71 33.1263 177.055 32.209 177.055 31.1043C177.055 30.1179 176.759 29.2992 176.167 28.6482C175.595 27.9972 174.757 27.4842 173.652 27.1094C172.567 26.7346 171.186 26.4288 169.509 26.1921H169.45L165.426 25.6594C161.46 25.1071 158.373 23.8642 156.163 21.9309C153.954 19.9976 152.849 17.3344 152.849 13.9412C152.849 11.1794 153.569 8.82192 155.009 6.86889C156.469 4.89612 158.452 3.40669 160.957 2.40058C163.482 1.39447 166.333 0.891418 169.509 0.891418C172.37 0.891418 175.171 1.28597 177.913 2.07508C180.675 2.84445 183.111 3.93934 185.222 5.35972L181.642 12.3137C179.925 11.1695 178.061 10.2719 176.049 9.62089C174.037 8.95015 171.926 8.61478 169.716 8.61478C168.217 8.61478 166.895 8.79233 165.751 9.14743C164.627 9.4828 163.749 9.99571 163.117 10.6862C162.486 11.3766 162.171 12.2348 162.171 13.2606C162.171 14.1681 162.437 14.9375 162.969 15.5688C163.502 16.2 164.272 16.7031 165.278 17.0779C166.303 17.4528 167.615 17.7585 169.213 17.9953C169.272 17.9953 169.332 18.0051 169.391 18.0249L173.415 18.5575C177.558 19.1493 180.754 20.4218 183.003 22.3748C185.272 24.3081 186.406 26.9713 186.406 30.3645C186.406 33.3236 185.617 35.7994 184.039 37.7919C182.46 39.7844 180.34 41.264 177.676 42.2306C175.013 43.1973 172.044 43.6806 168.769 43.6806Z" fill="#1E94FF"/>
<path d="M101.124 1.57202H118.997C123.396 1.57202 127.253 2.44004 130.567 4.17607C133.882 5.89237 136.446 8.31887 138.261 11.4556C140.096 14.5725 141.013 18.1827 141.013 22.286C141.013 26.3894 140.096 30.0094 138.261 33.1461C136.446 36.263 133.882 38.6895 130.567 40.4256C127.253 42.1419 123.396 43 118.997 43H101.124V1.57202ZM118.583 35.0103C121.286 35.0103 123.633 34.4974 125.626 33.4716C127.638 32.426 129.177 30.9464 130.242 29.0329C131.327 27.1193 131.869 24.8703 131.869 22.286C131.869 19.7017 131.327 17.4528 130.242 15.5392C129.177 13.6256 127.638 12.1559 125.626 11.1301C123.633 10.0845 121.286 9.56171 118.583 9.56171H110.031V35.0103H118.583Z" fill="#0361FF"/>
<path d="M63.4115 1.57202H73.3542L90.5468 43H81.1367L67.8206 9.73925H68.8267L55.5106 43H46.2189L63.4115 1.57202ZM56.7238 26.5472H79.7164V34.3889H56.7238V26.5472Z" fill="#0361FF"/>
<path d="M0.339722 1.57202H9.24674V18.0544H12.6793L26.7945 1.57202H37.6545L20.2547 21.8126L38.4535 43H27.4455L12.8569 25.9849H9.24674V43H0.339722V1.57202Z" fill="#0361FF"/>
</svg>
