<svg width="24" height="24" viewBox="0 0 24 24" fill="none" xmlns="http://www.w3.org/2000/svg">
<path fill-rule="evenodd" clip-rule="evenodd" d="M14.1082 2.44023C14.4409 2.52858 14.7196 2.75551 14.8735 3.06337C15.4538 4.22392 15.8869 4.92829 16.3226 5.49938C16.7636 6.07746 17.2301 6.55069 17.9398 7.26036C19.5798 8.90033 20.4001 11.0522 20.4001 13.2001C20.4001 15.348 19.5798 17.4998 17.9398 19.1398C14.6594 22.4202 9.3408 22.4202 6.0604 19.1398C4.42044 17.4998 3.6001 15.348 3.6001 13.2001C3.60009 11.0522 4.42043 8.90033 6.0604 7.26036C6.4036 6.91716 6.91974 6.81449 7.36815 7.00023C7.81656 7.18597 8.10893 7.62353 8.10893 8.10889C8.10893 9.45266 8.19284 10.4766 8.58587 11.2933C8.80199 11.7423 9.13912 12.1814 9.72015 12.5732C9.85892 11.3003 10.1131 9.7494 10.4566 8.27735C10.727 7.11837 11.0634 5.9613 11.4637 4.99642C11.6639 4.51381 11.8904 4.05427 12.1475 3.65751C12.3978 3.27132 12.7194 2.87832 13.1346 2.60157C13.421 2.41064 13.7755 2.35189 14.1082 2.44023ZM14.5457 18.1456C13.1398 19.5515 10.8604 19.5515 9.45451 18.1456C8.75157 17.4427 8.4001 16.5214 8.4001 15.6C8.4001 15.6 9.45451 16.2 11.4002 16.2C11.4002 15 12.0002 11.4 12.9002 10.8C13.5002 12 13.8427 12.3515 14.5457 13.0544C15.2486 13.7574 15.6001 14.6787 15.6001 15.6C15.6001 16.5214 15.2486 17.4427 14.5457 18.1456Z" fill="#1E94FF"/>
</svg>
