<svg width="24" height="24" viewBox="0 0 24 24" fill="none" xmlns="http://www.w3.org/2000/svg">
<path fill-rule="evenodd" clip-rule="evenodd" d="M13.5609 1.25549C14.0604 1.41296 14.4001 1.87621 14.4001 2.39998V8.39998L19.2001 8.39998C19.6476 8.39998 20.0578 8.64893 20.2645 9.04581C20.4711 9.44268 20.4398 9.92157 20.1832 10.2881L11.7832 22.2881C11.4828 22.7172 10.9389 22.9019 10.4393 22.7445C9.9398 22.587 9.6001 22.1237 9.6001 21.6L9.6001 15.6H4.8001C4.35265 15.6 3.94236 15.351 3.73573 14.9542C3.52909 14.5573 3.56043 14.0784 3.81702 13.7118L12.217 1.71182C12.5174 1.28274 13.0613 1.09803 13.5609 1.25549Z" fill="#FD736C"/>
</svg>
